<?xml version="1.0" encoding="UTF-8"?><svg id="Layer_2" xmlns="http://www.w3.org/2000/svg" xmlns:xlink="http://www.w3.org/1999/xlink" viewBox="0 0 962.6 86.58"><defs><style>.cls-1{fill:url(#linear-gradient);}.cls-2{fill:url(#linear-gradient-8);}.cls-3{fill:url(#linear-gradient-9);}.cls-4{fill:url(#linear-gradient-3);}.cls-5{fill:url(#linear-gradient-4);}.cls-6{fill:url(#linear-gradient-2);}.cls-7{fill:url(#linear-gradient-6);}.cls-8{fill:url(#linear-gradient-7);}.cls-9{fill:url(#linear-gradient-5);}.cls-10{fill:url(#linear-gradient-12);}.cls-11{fill:url(#linear-gradient-10);}.cls-12{fill:url(#linear-gradient-11);}</style><linearGradient id="linear-gradient" x1="5.58" y1="83.16" x2="939.21" y2="83.16" gradientTransform="matrix(1, 0, 0, 1, 0, 0)" gradientUnits="userSpaceOnUse"><stop offset="0" stop-color="#4792ff"/><stop offset="1" stop-color="#464fff"/></linearGradient><linearGradient id="linear-gradient-2" y1="43.29" x2="939.21" y2="43.29" xlink:href="#linear-gradient"/><linearGradient id="linear-gradient-3" y1="43.29" x2="939.21" y2="43.29" xlink:href="#linear-gradient"/><linearGradient id="linear-gradient-4" y1="43.29" x2="939.21" y2="43.29" xlink:href="#linear-gradient"/><linearGradient id="linear-gradient-5" y1="43.29" x2="939.21" y2="43.29" xlink:href="#linear-gradient"/><linearGradient id="linear-gradient-6" y1="43.29" x2="939.21" y2="43.29" xlink:href="#linear-gradient"/><linearGradient id="linear-gradient-7" y1="43.29" x2="939.21" y2="43.29" xlink:href="#linear-gradient"/><linearGradient id="linear-gradient-8" y1="43.29" x2="939.21" y2="43.29" xlink:href="#linear-gradient"/><linearGradient id="linear-gradient-9" y1="43.29" x2="939.21" y2="43.29" xlink:href="#linear-gradient"/><linearGradient id="linear-gradient-10" y1="41.96" y2="41.96" xlink:href="#linear-gradient"/><linearGradient id="linear-gradient-11" y1="3.59" y2="3.59" xlink:href="#linear-gradient"/><linearGradient id="linear-gradient-12" y1="43.29" y2="43.29" xlink:href="#linear-gradient"/></defs><g id="Layer_1-2"><g><rect class="cls-1" x="527.62" y="80.36" width="58.18" height="5.61"/><g><path class="cls-6" d="M69.51,.61V85.97h-6.22V45.36H6.22v40.61H0V.61H6.22V39.87H63.29V.61h6.22Z"/><path class="cls-4" d="M128.04,56.58v29.39h-6.22v-29.39L87.43,.61h6.83l30.85,50.24L155.96,.61h6.46l-34.39,55.97Z"/><path class="cls-5" d="M326.44,56.09c6.42-1.87,11.36-5.1,14.82-9.69,3.45-4.59,5.18-10.26,5.18-17.01,0-9.02-3.05-16.07-9.15-21.16-6.1-5.08-14.51-7.62-25.24-7.62h-30.61V6.22h30.61c9.1,0,16.05,2.01,20.85,6.04,4.8,4.02,7.19,9.74,7.19,17.13s-2.4,13.11-7.19,17.13c-4.8,4.02-11.75,6.04-20.85,6.04h-30.61v33.41h6.22v-27.92h24.39c2.52,0,5.28-.2,8.29-.61l20.36,28.53h7.07l-21.34-29.88Z"/><polygon class="cls-9" points="402.89 .61 396.67 .61 357.41 85.97 364.11 85.97 374.97 61.95 377.41 56.7 399.72 7.44 422.16 56.7 424.48 61.95 435.45 85.97 442.16 85.97 402.89 .61"/><path class="cls-7" d="M472.15,6.22h-30.73V.61h67.68V6.22h-30.73V85.97h-6.22V6.22Z"/><path class="cls-8" d="M714.2,.61V85.97h-5.12l-58.17-74.14V85.97h-6.22V.61h5.24l58.04,74.14V.61h6.22Z"/><path class="cls-2" d="M759.93,80.91c-6.75-3.78-12.05-8.96-15.91-15.55-3.86-6.59-5.79-13.94-5.79-22.07s1.93-15.49,5.79-22.07c3.86-6.59,9.16-11.77,15.91-15.55s14.31-5.67,22.68-5.67,15.93,1.87,22.68,5.61c6.75,3.74,12.05,8.9,15.91,15.49,3.86,6.59,5.79,13.98,5.79,22.19s-1.93,15.61-5.79,22.19c-3.86,6.59-9.17,11.75-15.91,15.49-6.75,3.74-14.31,5.61-22.68,5.61s-15.93-1.89-22.68-5.67Zm42.07-4.94c5.77-3.25,10.32-7.74,13.66-13.47,3.33-5.73,5-12.13,5-19.21s-1.67-13.47-5-19.21c-3.33-5.73-7.89-10.22-13.66-13.47-5.77-3.25-12.24-4.88-19.39-4.88s-13.64,1.63-19.45,4.88c-5.81,3.25-10.39,7.74-13.72,13.47-3.33,5.73-5,12.13-5,19.21s1.67,13.47,5,19.21c3.33,5.73,7.9,10.22,13.72,13.47,5.81,3.25,12.3,4.88,19.45,4.88s13.62-1.62,19.39-4.88Z"/><path class="cls-3" d="M962.6,.61l-28.9,85.36h-6.59l-26.46-76.58-26.58,76.58h-6.59L838.46,.61h6.59l25.97,76.82L897.73,.61h5.97l26.58,76.94L956.5,.61h6.1Z"/><rect class="cls-11" x="527.62" y="39.15" width="58.18" height="5.61"/><rect class="cls-12" x="527.62" y=".79" width="58.18" height="5.61"/><path class="cls-10" d="M251.69,21.28c-3.82-6.46-9.17-11.52-16.04-15.18-6.87-3.66-14.74-5.49-23.6-5.49h-33.78V6.22h33.29c7.88,0,14.84,1.57,20.85,4.7,6.02,3.13,10.65,7.5,13.9,13.11,3.25,5.61,4.88,12.03,4.88,19.27s-1.63,13.66-4.88,19.27c-3.25,5.61-7.89,9.98-13.9,13.11-6.02,3.13-12.97,4.69-20.85,4.69h-27.07V41.46h-6.22v44.51h33.78c8.86,0,16.73-1.83,23.6-5.49,6.87-3.66,12.21-8.72,16.04-15.18,3.82-6.46,5.73-13.8,5.73-22.01s-1.91-15.55-5.73-22.01Z"/></g></g></g></svg>