<?xml version="1.0" standalone="no"?>
<!DOCTYPE svg PUBLIC "-//W3C//DTD SVG 20010904//EN"
 "http://www.w3.org/TR/2001/REC-SVG-20010904/DTD/svg10.dtd">
<svg version="1.0" xmlns="http://www.w3.org/2000/svg"
 width="260.000000pt" height="260.000000pt" viewBox="0 0 260.000000 260.000000"
 preserveAspectRatio="xMidYMid meet">
<metadata>
Created by potrace 1.14, written by Peter Selinger 2001-2017
</metadata>
<g transform="translate(0.000000,260.000000) scale(0.100000,-0.100000)"
fill="#000000" stroke="none">
<path d="M310 1300 l0 -1200 65 0 65 0 1 43 c1 23 2 86 2 140 1 59 5 97 12 97
5 0 3 5 -5 10 -13 8 -12 11 5 25 14 12 15 15 4 12 -13 -4 -16 3 -15 46 1 32 7
56 15 63 11 9 12 12 1 19 -9 5 -11 4 -6 -3 4 -7 4 -12 -1 -12 -11 0 -10 162 1
179 6 10 6 12 -2 7 -7 -4 -12 -2 -12 3 0 6 6 11 13 11 8 0 7 3 -3 10 -13 8
-12 11 4 23 15 11 16 16 6 22 -9 5 -11 4 -6 -3 4 -7 2 -12 -3 -12 -11 0 -10
27 2 46 3 6 3 14 0 18 -14 14 -10 81 5 92 12 9 12 13 2 19 -9 5 -11 4 -6 -3 4
-7 3 -12 -2 -12 -12 0 -10 163 3 172 6 5 5 8 -2 8 -7 0 -13 5 -13 11 0 5 4 8
9 4 5 -3 13 -1 16 5 4 6 1 9 -7 8 -7 -2 -14 8 -16 21 -3 17 0 21 10 15 11 -6
11 -5 0 9 -12 14 -11 17 10 21 12 3 376 4 808 3 l784 -2 3 -59 c2 -36 -1 -64
-9 -74 -8 -10 -9 -13 -2 -9 9 5 12 -9 13 -48 0 -41 -4 -57 -17 -65 -15 -10
-15 -11 0 -6 13 4 16 -4 16 -47 1 -28 -4 -57 -10 -64 -7 -9 -7 -13 1 -13 6 0
11 -7 11 -16 0 -9 -5 -12 -12 -8 -10 6 -10 4 0 -7 16 -17 16 -81 0 -98 -10
-11 -10 -13 0 -7 6 4 12 3 12 -3 0 -5 -6 -12 -12 -14 -10 -4 -10 -6 0 -6 6 -1
12 -8 12 -17 0 -9 -5 -12 -12 -8 -10 6 -10 4 0 -7 17 -19 15 -46 -5 -59 -17
-11 -17 -11 0 -6 20 6 23 -14 5 -33 -7 -8 -8 -11 -2 -8 16 9 17 -72 1 -91 -6
-9 -7 -13 -2 -10 7 4 11 -16 13 -55 1 -47 -1 -58 -9 -47 -9 12 -10 11 -4 -5
17 -46 17 -57 4 -66 -11 -7 -11 -9 -1 -9 7 0 12 -8 11 -18 -1 -9 -1 -43 0 -74
l1 -58 65 0 65 0 0 1200 0 1200 -65 0 -65 0 -2 -37 c0 -21 0 -49 1 -61 1 -13
-4 -31 -11 -40 -8 -9 -8 -13 -1 -9 15 10 16 -92 0 -112 -8 -11 -9 -13 0 -8 15
9 16 -92 1 -110 -7 -9 -7 -13 1 -13 6 0 11 -7 11 -16 0 -9 -5 -12 -12 -8 -10
6 -10 4 0 -7 6 -7 12 -29 12 -49 0 -20 -6 -42 -12 -49 -10 -11 -10 -13 0 -7 6
4 12 3 12 -3 0 -5 -6 -12 -12 -14 -10 -4 -10 -6 0 -6 6 -1 12 -8 12 -17 0 -9
-5 -12 -12 -8 -10 6 -10 4 0 -7 6 -7 12 -29 12 -49 0 -20 -6 -42 -12 -49 -7
-8 -8 -11 -2 -8 16 9 17 -72 1 -91 -7 -10 -8 -13 -1 -9 9 5 12 -9 13 -48 0
-41 -4 -57 -17 -65 -15 -10 -15 -11 0 -6 13 4 16 -4 16 -47 1 -28 -4 -57 -10
-64 -7 -9 -7 -13 1 -13 6 0 11 -7 11 -16 0 -9 -5 -12 -12 -8 -7 5 -8 3 -2 -7
13 -22 14 -43 2 -50 -19 -12 -1538 -10 -1538 2 0 6 -9 5 -22 -2 -19 -10 -21
-10 -12 2 6 8 11 25 11 39 1 14 -1 19 -4 13 -5 -14 -32 -18 -34 -5 -6 41 -3
82 5 82 6 0 5 4 -2 9 -17 11 -17 21 0 32 7 5 8 9 3 9 -14 0 -16 92 -2 109 9
12 9 13 0 7 -7 -4 -13 -2 -13 3 0 6 6 11 13 11 8 0 7 3 -3 10 -13 8 -12 11 4
23 15 11 16 16 6 22 -9 5 -11 4 -6 -3 4 -7 2 -12 -3 -12 -11 0 -10 27 2 46 3
6 3 14 0 18 -14 14 -10 81 5 92 12 9 12 13 2 19 -9 5 -11 4 -6 -3 4 -7 3 -12
-1 -12 -5 0 -9 18 -10 40 0 24 4 40 11 40 6 0 4 5 -4 10 -13 8 -12 11 4 23 15
11 16 16 6 22 -9 5 -11 4 -6 -3 4 -7 3 -12 -2 -12 -15 0 -9 104 7 116 11 9 12
12 1 19 -9 5 -11 4 -6 -3 4 -7 4 -12 -1 -12 -4 0 -9 39 -10 87 -1 54 2 81 8
72 5 -9 9 -10 9 -2 0 6 -5 15 -11 18 -6 5 -4 12 8 22 16 13 16 14 1 9 -14 -4
-17 1 -15 27 2 18 7 38 11 46 6 10 5 12 -3 7 -9 -6 -11 3 -9 31 l3 38 -67 3
-68 3 0 -1201z m158 112 c15 12 16 11 3 -4 -14 -19 -32 -15 -30 5 0 8 2 8 6
-1 4 -10 8 -10 21 0z"/>
<path d="M2030 2280 c0 -5 5 -10 10 -10 6 0 10 5 10 10 0 6 -4 10 -10 10 -5 0
-10 -4 -10 -10z"/>
<path d="M455 2271 c-3 -5 -2 -12 3 -15 5 -3 9 1 9 9 0 17 -3 19 -12 6z"/>
<path d="M2035 2171 c-3 -5 -2 -12 3 -15 5 -3 9 1 9 9 0 17 -3 19 -12 6z"/>
<path d="M2036 2013 c-6 -14 -5 -15 5 -6 7 7 10 15 7 18 -3 3 -9 -2 -12 -12z"/>
<path d="M2036 1853 c-6 -14 -5 -15 5 -6 7 7 10 15 7 18 -3 3 -9 -2 -12 -12z"/>
<path d="M2035 1771 c-3 -5 -2 -12 3 -15 5 -3 9 1 9 9 0 17 -3 19 -12 6z"/>
<path d="M2035 1640 c3 -5 8 -10 11 -10 2 0 4 5 4 10 0 6 -5 10 -11 10 -5 0
-7 -4 -4 -10z"/>
<path d="M2035 1531 c-3 -5 -2 -12 3 -15 5 -3 9 1 9 9 0 17 -3 19 -12 6z"/>
<path d="M454 1476 c1 -14 4 -28 7 -31 3 -3 5 6 5 19 -1 14 -4 28 -7 31 -3 3
-5 -6 -5 -19z"/>
<path d="M2035 1131 c-3 -5 -2 -12 3 -15 5 -3 9 1 9 9 0 17 -3 19 -12 6z"/>
<path d="M2035 1000 c3 -5 8 -10 11 -10 2 0 4 5 4 10 0 6 -5 10 -11 10 -5 0
-7 -4 -4 -10z"/>
<path d="M2035 891 c-3 -5 -2 -12 3 -15 5 -3 9 1 9 9 0 17 -3 19 -12 6z"/>
<path d="M2036 733 c-6 -14 -5 -15 5 -6 7 7 10 15 7 18 -3 3 -9 -2 -12 -12z"/>
<path d="M454 683 c1 -12 5 -25 9 -28 4 -3 5 -2 2 2 -3 3 1 13 8 21 8 11 8 14
0 9 -6 -4 -14 -1 -17 5 -2 7 -4 3 -2 -9z"/>
<path d="M2035 480 c3 -5 8 -10 11 -10 2 0 4 5 4 10 0 6 -5 10 -11 10 -5 0 -7
-4 -4 -10z"/>
</g>
</svg>
